# xmcd
#
# Track frame offsets: 
#        150
#        15991
#        36153
#        59837
#        81238
#        97090
#        112158
#        129840
#        149480
#        171314
#        193644
#        211952
#        234125
#        247370
#        268551
#
# Disc length: 3732 seconds
#
# Revision: 1
# Processed by: cddbd v1.5.1PL2 Copyright (c) Steve Scherf et al.
# Submitted via: ExactAudioCopy v0.95b4
#
DISCID=dd0e920f
DTITLE=韩红 - 风雨中的美丽
DYEAR=2001
DGENRE=Pop
TTITLE0=醒了
TTITLE1=那片海
TTITLE2=天空
TTITLE3=那个冬季
TTITLE4=天亮了
TTITLE5=青藏高原
TTITLE6=家乡
TTITLE7=风雨中的美丽
TTITLE8=喜马拉雅
TTITLE9=I`ll Always love you
TTITLE10=希望
TTITLE11=相爱
TTITLE12=不必回头
TTITLE13=你随风而去
TTITLE14=算了吧
EXTD=
EXTT0=
EXTT1=
EXTT2=
EXTT3=
EXTT4=
EXTT5=
EXTT6=
EXTT7=
EXTT8=
EXTT9=
EXTT10=
EXTT11=
EXTT12=
EXTT13=
EXTT14=
PLAYORDER=
